<svg data-v-423bf9ae="" xmlns="http://www.w3.org/2000/svg" viewBox="0 0 226.65481247012943 60" class="font"><!----><!----><!----><g data-v-423bf9ae="" id="c25d059c-88c9-42e9-9eb0-3fd4fcc50e25" fill="white" transform="matrix(5.725191089769513,0,0,5.725191089769513,-0.925843513904482,-16.6030542294912)"><path d="M1.34 6.30C1.29 6.15 1.20 6.10 1.06 6.10L0.31 6.10C0.15 6.10 0.13 6.16 0.20 6.33L2.37 13.17C2.42 13.31 2.49 13.38 2.56 13.38L2.65 13.38C2.73 13.38 2.79 13.31 2.86 13.17L5.14 7.56L7.41 13.17C7.48 13.31 7.53 13.38 7.62 13.38L7.71 13.38C7.77 13.38 7.84 13.31 7.90 13.17L10.07 6.33C10.14 6.16 10.12 6.10 9.95 6.10L9.20 6.10C9.04 6.10 8.96 6.15 8.90 6.33L7.42 11.21L5.38 6.09C5.32 5.99 5.28 5.89 5.18 5.89L5.08 5.89C4.97 5.89 4.94 5.99 4.89 6.09L2.84 11.21ZM14.62 12.43C13.15 12.43 11.97 11.23 11.97 9.67C11.97 8.13 13.15 6.90 14.62 6.90C15.39 6.90 16.09 7.21 16.56 7.69C16.67 7.80 16.76 7.77 16.86 7.64L17.19 7.29C17.30 7.17 17.30 7.10 17.19 7C16.48 6.29 15.57 5.95 14.60 5.95C12.56 5.95 10.93 7.63 10.93 9.67C10.93 11.72 12.56 13.38 14.60 13.38C15.57 13.38 16.48 13.05 17.19 12.33C17.30 12.24 17.30 12.17 17.19 12.04L16.86 11.69C16.76 11.56 16.67 11.54 16.56 11.65C16.09 12.12 15.39 12.43 14.62 12.43ZM20.23 3.12C20.23 2.95 20.17 2.90 20.02 2.90L19.39 2.90C19.24 2.90 19.18 2.95 19.18 3.12L19.18 9.53L19.18 13.01C19.18 13.17 19.24 13.23 19.39 13.23L20.02 13.23C20.17 13.23 20.23 13.17 20.23 13.01L20.23 9.48C20.23 8.08 21.01 6.90 22.23 6.90C23.37 6.90 24.21 7.71 24.21 9.38L24.21 13.01C24.21 13.17 24.26 13.23 24.42 13.23L25.05 13.23C25.20 13.23 25.26 13.17 25.26 13.01L25.26 9.10C25.26 6.86 23.98 5.95 22.48 5.95C21.20 5.95 20.48 6.96 20.23 7.43ZM28.01 7.10C28.55 7 29.27 6.87 30.17 6.87C31.64 6.87 32.16 7.52 32.16 9.28C31.44 8.99 30.63 8.79 29.89 8.79C28.17 8.79 27.02 9.53 27.02 11.06C27.02 12.56 28.17 13.38 29.51 13.38C31.02 13.38 31.95 12.57 32.33 12.05L32.38 13.01C32.42 13.17 32.48 13.23 32.59 13.23L33.00 13.23C33.15 13.23 33.21 13.17 33.21 13.01L33.21 9.31C33.21 7 32.56 5.95 30.21 5.95C29.13 5.95 27.97 6.16 27.80 6.20C27.64 6.26 27.59 6.33 27.64 6.48L27.75 6.90C27.79 7.07 27.83 7.14 28.01 7.10ZM30.10 9.58C30.90 9.58 31.44 9.79 32.16 10.08L32.16 11.24C31.71 11.90 30.80 12.56 29.83 12.56C28.70 12.56 28.07 11.93 28.07 11.06C28.07 10.11 28.77 9.58 30.10 9.58ZM39.63 13.05C39.76 12.98 39.77 12.92 39.73 12.78L39.65 12.33C39.59 12.14 39.55 12.12 39.37 12.22C39.02 12.40 38.79 12.43 38.40 12.43C37.28 12.43 36.79 11.83 36.79 10.19L36.79 6.97L39.33 6.97C39.49 6.97 39.54 6.92 39.54 6.75L39.54 6.33C39.54 6.15 39.48 6.10 39.33 6.10L36.79 6.10L36.79 4.66C36.79 4.49 36.75 4.44 36.58 4.44L35.97 4.44C35.80 4.44 35.76 4.49 35.76 4.66L35.76 6.10L35.07 6.10C34.90 6.10 34.85 6.15 34.85 6.33L34.85 6.75C34.85 6.92 34.90 6.97 35.07 6.97L35.76 6.97L35.76 10.28C35.76 12.22 36.44 13.38 38.29 13.38C38.47 13.38 39.07 13.38 39.63 13.05Z"></path></g><!----><!----></svg>